<?xml version="1.0" ?><svg height="512" id="svg2" version="1.1" width="512" xmlns="http://www.w3.org/2000/svg" xmlns:cc="http://creativecommons.org/ns#" xmlns:dc="http://purl.org/dc/elements/1.1/" xmlns:inkscape="http://www.inkscape.org/namespaces/inkscape" xmlns:rdf="http://www.w3.org/1999/02/22-rdf-syntax-ns#" xmlns:sodipodi="http://sodipodi.sourceforge.net/DTD/sodipodi-0.dtd" xmlns:svg="http://www.w3.org/2000/svg"><defs id="defs4"/><g id="layer1" transform="translate(0,-540.36218)"><g id="g4305"><g id="g4345" transform="translate(28,-40.00001)"><g id="text2994" style="font-size:550px;font-style:normal;font-variant:normal;font-weight:normal;font-stretch:normal;text-align:start;line-height:125%;letter-spacing:0px;word-spacing:0px;writing-mode:lr-tb;text-anchor:start;fill:#222222;fill-opacity:1;stroke:none;font-family:Ubuntu;-inkscape-font-specification:Ubuntu"><g id="g3830" transform="translate(0,15.24359)"><g id="g3838"><g id="g3785"><path d="m 320.5,676.1186 c -23.29951,0 -44.51716,8.84838 -60.5,23.375 -0.41075,0.37799 -0.84627,0.73943 -1.25,1.125 -0.11736,0.1107 -0.22699,0.23243 -0.34375,0.34375 -0.40027,0.38643 -0.79435,0.76244 -1.1875,1.15625 -0.12012,0.11878 -0.2243,0.25555 -0.34375,0.375 -0.3869,0.39193 -0.77646,0.78847 -1.15625,1.1875 -15.38606,16.16555 -24.90625,38.10323 -24.90625,62.4375 0,50.23851 40.49697,90.3125 89.6875,90.3125 49.19052,0 89.6875,-40.07399 89.6875,-90.3125 0,-24.92709 -9.97874,-47.35637 -26.03125,-63.625 -0.31686,-0.31702 -0.64722,-0.62521 -0.96875,-0.9375 -0.6483,-0.62965 -1.30179,-1.26493 -1.96875,-1.875 C 365.2116,685.03954 343.902,676.1186 320.5,676.1186 z m 0,30 c 33.13708,0 60,26.86291 60,60 0,33.13709 -26.86292,60 -60,60 -33.13708,0 -60,-26.86291 -60,-60 0,-33.13709 26.86292,-60 60,-60 z m 86.8125,10 c 8.6204,14.73693 13.53125,31.82606 13.53125,50 0,54.6956 -44.60018,99.6875 -100.34375,99.6875 -35.58854,0 -66.64024,-18.31772 -84.4375,-45.8125 -0.3779,6.86578 -0.5625,13.91846 -0.5625,21.125 0,69.03559 17.90861,125 40,125 l 165,0 c 22.09139,0 40,-55.96441 40,-125 0,-69.03559 -17.90861,-125 -40,-125 l -33.1875,0 z m -411.8125,20 c -11.045695,0 -20,40.29437 -20,90 0,49.70563 8.954305,90 20,90 l 200,0 c 5.92108,0 11.24424,-11.5997 14.90625,-30 l 15.375,0 c -1.68768,-12.57701 -2.625,-26.01134 -2.625,-40 0,-15.89723 1.183,-31.08652 3.34375,-45.09375 -4.0971,-10.87885 -6.34375,-22.65805 -6.34375,-34.90625 l -9.75,0 c -3.66201,-18.4003 -8.98517,-30 -14.90625,-30 l -200,0 z m 440,70 c 8.28427,0 15,6.71573 15,15 0,8.28427 -6.71573,15 -15,15 -8.28427,0 -15,-6.71573 -15,-15 0,-8.28427 6.71573,-15 15,-15 z" id="rect3847" style="color:#000000;fill:#222222;fill-opacity:1;fill-rule:nonzero;stroke:none;stroke-width:0;marker:none;visibility:visible;display:inline;overflow:visible;enable-background:accumulate"/></g></g></g><g id="layer1-4" transform="translate(539.77941,-13.359245)"><g id="layer1-5" transform="translate(-573.14286,170.28574)"/></g></g></g></g></g></svg>